<svg xmlns="http://www.w3.org/2000/svg" xmlns:xlink="http://www.w3.org/1999/xlink" viewBox="0 0 79.63 106.7"><defs><style>.ecf32e22-fc35-4fdc-87dc-70cdd3280114{fill:none;}.a8597299-722d-4737-bba9-f73d454d52bc{fill:url(#b9371a35-5324-4d16-a18e-1067a1989cae);}.b4c59143-8720-4c8c-8d65-71779e1c7b94{fill:url(#b526fb7e-1011-4b5b-bc91-d5b557e20858);}.b0d1c163-abfb-4a70-8f98-8c0d5cbb86bf{fill:url(#f249027a-95b4-4546-9e63-0d01086ee8cc);}.bcc2042a-a567-4039-95df-00989d44d51e{fill:url(#e51956b9-deb1-44da-a306-6aae2ee6c95a);}.b483aeb8-e874-4424-877a-0488aa9686b9,.b67c40d9-638c-4a6a-bfec-052f94dd7cda{opacity:0.73;}.b483aeb8-e874-4424-877a-0488aa9686b9{fill:url(#e379c79b-b37a-41b2-ae0b-d4a1adfe0f0c);}.aaa0e293-8067-4c3b-a100-6dbf65403f78,.b02ad881-9b83-4d8a-ab73-1b7d8ef86087{opacity:0.5;}.aaa0e293-8067-4c3b-a100-6dbf65403f78{fill:url(#b27dcca1-dafb-42cd-a33b-d2454097d6ce);}.b02ad881-9b83-4d8a-ab73-1b7d8ef86087{fill:url(#f1770f70-82f3-430c-ae1b-07302220dafc);}.e644ce65-f560-4c5b-9720-e7aece6bf0f0{fill:url(#a1bff813-4814-4ba1-8b01-645cf39c877a);}.b67c40d9-638c-4a6a-bfec-052f94dd7cda{fill:url(#aef427bc-b4f5-4176-9407-ea0ade18cc9b);}.f605ac7d-9c92-4ac3-8580-d47c454c10ca{fill:#8222ff;}.f246a357-f5f3-4e90-9922-94f7b0acaf1c{fill:#69f;}.b542a516-e4af-420d-aa64-de132b9c7081{fill:#a4eb5f;}.e03b45e1-620f-4b58-a2d0-9239fbc942b3{clip-path:url(#a3d1ccdc-a164-4a77-9977-b4286a4cb5c3);}.aaf7693e-a134-434f-b9bf-74b7ede15666{fill:#1a384c;}.ac07ca87-daea-45c6-b815-27eb0a233eeb{fill:#c4ea9d;opacity:0.84;}.ef9311ae-f30e-4a0f-ab44-8d48854b59ef{opacity:0.81;fill:url(#b17342db-f980-45d2-a35a-fcd0768ddbfc);}.a6ef9801-d222-4ebd-8da1-e2ad667dcd87{fill:#571ab7;}</style><linearGradient id="b9371a35-5324-4d16-a18e-1067a1989cae" x1="23.12" y1="45.03" x2="54" y2="45.03" gradientUnits="userSpaceOnUse"><stop offset="0" stop-color="#a4eb5f"/><stop offset="0.11" stop-color="#a6eb62"/><stop offset="0.19" stop-color="#abed6c"/><stop offset="0.27" stop-color="#b5ef7d"/><stop offset="0.34" stop-color="#c2f294"/><stop offset="0.41" stop-color="#d3f6b2"/><stop offset="0.48" stop-color="#e7fbd7"/><stop offset="0.52" stop-color="#f6fff1"/><stop offset="0.55" stop-color="#e9fcda"/><stop offset="0.61" stop-color="#d4f7b5"/><stop offset="0.68" stop-color="#c3f295"/><stop offset="0.75" stop-color="#b5ef7d"/><stop offset="0.82" stop-color="#aced6c"/><stop offset="0.9" stop-color="#a6eb62"/><stop offset="1" stop-color="#a4eb5f"/></linearGradient><linearGradient id="b526fb7e-1011-4b5b-bc91-d5b557e20858" x1="23.12" y1="44.6" x2="54" y2="44.6" xlink:href="#b9371a35-5324-4d16-a18e-1067a1989cae"/><linearGradient id="f249027a-95b4-4546-9e63-0d01086ee8cc" x1="23.12" y1="75.67" x2="54" y2="75.67" xlink:href="#b9371a35-5324-4d16-a18e-1067a1989cae"/><linearGradient id="e51956b9-deb1-44da-a306-6aae2ee6c95a" x1="23.12" y1="75.68" x2="54" y2="75.68" xlink:href="#b9371a35-5324-4d16-a18e-1067a1989cae"/><linearGradient id="e379c79b-b37a-41b2-ae0b-d4a1adfe0f0c" x1="47.58" y1="43.15" x2="47.58" y2="106.67" gradientUnits="userSpaceOnUse"><stop offset="0" stop-color="#b4ff81"/><stop offset="0.55" stop-color="#f6fff1"/><stop offset="1" stop-color="#c4ea9d"/></linearGradient><linearGradient id="b27dcca1-dafb-42cd-a33b-d2454097d6ce" x1="23.55" y1="44.89" x2="23.55" y2="106.54" xlink:href="#e379c79b-b37a-41b2-ae0b-d4a1adfe0f0c"/><linearGradient id="f1770f70-82f3-430c-ae1b-07302220dafc" x1="54.65" y1="44.89" x2="54.65" y2="106.57" xlink:href="#e379c79b-b37a-41b2-ae0b-d4a1adfe0f0c"/><linearGradient id="a1bff813-4814-4ba1-8b01-645cf39c877a" x1="23.12" y1="75.49" x2="54" y2="75.49" xlink:href="#b9371a35-5324-4d16-a18e-1067a1989cae"/><linearGradient id="aef427bc-b4f5-4176-9407-ea0ade18cc9b" x1="29.91" y1="43.02" x2="29.91" y2="106.64" xlink:href="#e379c79b-b37a-41b2-ae0b-d4a1adfe0f0c"/><clipPath id="a3d1ccdc-a164-4a77-9977-b4286a4cb5c3"><path class="ecf32e22-fc35-4fdc-87dc-70cdd3280114" d="M60.78,29.49s-10.67,3.15-19.51,3.37-18-2.26-22.35-3.37c-1.93-2.92-1.34-6.83,0-11C29.17,15.88,31.21,15.17,40,15s21.17,3.51,21.17,3.51C63.28,22.3,63.26,26,60.78,29.49Z"/></clipPath><linearGradient id="b17342db-f980-45d2-a35a-fcd0768ddbfc" x1="52.12" y1="17.55" x2="52.12" y2="34.9" xlink:href="#e379c79b-b37a-41b2-ae0b-d4a1adfe0f0c"/></defs><title>UFO_MapPin_1</title><g id="a1e08c78-97a6-40ab-a830-eed2507327b0" data-name="Layer 2"><g id="a88219d0-003c-4459-9b41-64fe345483d5" data-name="Layer 1"><path class="a8597299-722d-4737-bba9-f73d454d52bc" d="M53.87,44.69l.16.7.12-.72Z"/><path class="b4c59143-8720-4c8c-8d65-71779e1c7b94" d="M23.84,44.32c0,.18.06.36.1.57l.11-.55Z"/><path class="b0d1c163-abfb-4a70-8f98-8c0d5cbb86bf" d="M51,44.89a164.33,164.33,0,0,1-23.67-.25l5.88,42.78,2.64,19.22q1.5.06,3.06.06,1.11,0,2.19,0l3.09-19.29Z"/><path class="bcc2042a-a567-4039-95df-00989d44d51e" d="M51,44.89,44.23,87.38l-3.09,19.29,2.27-.1,3.29-19L54,45.39l-.16-.7C52.93,44.77,52,44.83,51,44.89Z"/><path class="b483aeb8-e874-4424-877a-0488aa9686b9" d="M51,44.89,44.23,87.38l-3.09,19.29,2.27-.1,3.29-19L54,45.39l-.16-.7C52.93,44.77,52,44.83,51,44.89Z"/><path class="aaa0e293-8067-4c3b-a100-6dbf65403f78" d="M23.94,44.89l-9.5,47.8L13,99.93c3,3.39,11.13,6,21.11,6.61-.33-2-1.57-9.62-3.1-18.92C28.43,71.91,25.05,51.39,23.94,44.89Z"/><path class="b02ad881-9b83-4d8a-ab73-1b7d8ef86087" d="M43.41,106.57c11.59-.69,20.72-4,22.48-8.15l-1-4.46L54,45.39,46.7,87.6Z"/><path class="e644ce65-f560-4c5b-9720-e7aece6bf0f0" d="M27.37,44.64c-1.11-.09-2.22-.19-3.32-.3l-.11.55c1.11,6.5,4.49,27,7.07,42.73,1.53,9.3,2.77,16.91,3.1,18.92l1.78.1L33.25,87.42Z"/><path class="b67c40d9-638c-4a6a-bfec-052f94dd7cda" d="M27.37,44.64c-1.11-.09-2.22-.19-3.32-.3l-.11.55c1.11,6.5,4.49,27,7.07,42.73,1.53,9.3,2.77,16.91,3.1,18.92l1.78.1L33.25,87.42Z"/><path class="f605ac7d-9c92-4ac3-8580-d47c454c10ca" d="M61.65,33.8c2.94-4.26,3.48-9.31.92-15.47l.25-.94L43.39,3.78l-1-3.5a12.69,12.69,0,0,0-4.5-.16L36.72,4,16.89,17.39l.25,1.18C15,23.65,15.41,28.8,18.19,34L0,37.45,1.13,40.7a203.53,203.53,0,0,0,22.71,3.62l.21,0c1.1.11,2.21.21,3.32.3A164.33,164.33,0,0,0,51,44.89c1-.06,1.89-.12,2.83-.2l.28,0a143.56,143.56,0,0,0,23.73-4l1.75-3.25Z"/><path class="f246a357-f5f3-4e90-9922-94f7b0acaf1c" d="M13.72,39.64c-2.41.68-3.76-.35-3.86-1.18-.15-1.11,6-1.79,6.87-.68C17.15,38.31,16,39,13.72,39.64Z"/><path class="f246a357-f5f3-4e90-9922-94f7b0acaf1c" d="M20.66,41.52c-2.39.47-3.72-.51-3.73-1.29,0-1.1,6.15-1.57,6.86-.45C24.14,40.34,22.94,41.06,20.66,41.52Z"/><path class="f246a357-f5f3-4e90-9922-94f7b0acaf1c" d="M28.86,42.32c-2.36.23-3.66-.72-3.57-1.45.13-1.09,6.34-1.23,6.85-.11C32.41,41.36,31.16,42.11,28.86,42.32Z"/><path class="f246a357-f5f3-4e90-9922-94f7b0acaf1c" d="M36.94,43.24c-2.32,0-3.59-.92-3.41-1.59.28-1.09,6.49-.94,6.83.18C40.55,42.47,39.25,43.2,36.94,43.24Z"/><path class="f246a357-f5f3-4e90-9922-94f7b0acaf1c" d="M44.68,43.49c-2.3-.22-3.52-1.11-3.27-1.73.44-1.08,6.64-.64,6.82.47C48.34,42.91,47,43.71,44.68,43.49Z"/><path class="f246a357-f5f3-4e90-9922-94f7b0acaf1c" d="M53,42.75c-2.26-.43-3.44-1.29-3.12-1.86.62-1.07,6.78-.35,6.81.75C56.67,42.37,55.29,43.19,53,42.75Z"/><path class="f246a357-f5f3-4e90-9922-94f7b0acaf1c" d="M59.65,41.3c-2.24-.64-3.37-1.47-3-2,.79-1.05,6.9-.06,6.79,1C63.39,41.11,62,42,59.65,41.3Z"/><path class="f246a357-f5f3-4e90-9922-94f7b0acaf1c" d="M66.22,39.6c2.34.9,3.78,0,4-.82.25-1.09-5.8-2.33-6.78-1.31C62.94,38,64,38.74,66.22,39.6Z"/><path class="b542a516-e4af-420d-aa64-de132b9c7081" d="M60.78,29.49s-10.67,3.15-19.51,3.37-18-2.26-22.35-3.37c-1.93-2.92-1.34-6.83,0-11C29.17,15.88,31.21,15.17,40,15s21.17,3.51,21.17,3.51C63.28,22.3,63.26,26,60.78,29.49Z"/><g class="e03b45e1-620f-4b58-a2d0-9239fbc942b3"><path class="aaf7693e-a134-434f-b9bf-74b7ede15666" d="M42.74,25.2c0,3.54-1.18,8.33-5.13,8.33-1.3,0-4.49.17-5.54-.37-2.14-1.11-3.52-5.27-3.52-7.64,0-3.54,3.37-7.86,7.31-7.86S42.74,21.66,42.74,25.2Z"/><path class="ac07ca87-daea-45c6-b815-27eb0a233eeb" d="M62.11,16.14l.27,2.24L48,32.29c-.44.05-1.4,1.37-1.85,1.4-1.21.09-2.72.11-3.95.14a78.23,78.23,0,0,1-12-.48L48.5,15.12c3.87.36,7.32.31,11.09,1.22C60.41,16.54,61.3,15.92,62.11,16.14Z"/><path class="ef9311ae-f30e-4a0f-ab44-8d48854b59ef" d="M46.71,32.41,61.2,18.5h0a11.88,11.88,0,0,0-2-.67L43,32.6C44.27,32.57,45.49,32.5,46.71,32.41Z"/></g><path class="a6ef9801-d222-4ebd-8da1-e2ad667dcd87" d="M39,14c-6,.12-11.23,1.08-18.76,2.69C25.52,12.29,31,8.3,37.66,6.78L39.07,2.7Z"/><path class="a6ef9801-d222-4ebd-8da1-e2ad667dcd87" d="M41.14,14c6,.12,11.23,1.08,18.76,2.69C54.57,12.29,49.08,8.3,42.44,6.78L41,2.7Z"/><polyline class="f605ac7d-9c92-4ac3-8580-d47c454c10ca" points="39.07 2.7 38.95 15.45 41.45 15.45 40.83 2.7"/><path class="f246a357-f5f3-4e90-9922-94f7b0acaf1c" d="M59.45,34.45a83.66,83.66,0,0,1-37.84,0V32.62a78,78,0,0,0,37.84,0Z"/></g></g></svg>