<svg xmlns="http://www.w3.org/2000/svg" xmlns:xlink="http://www.w3.org/1999/xlink" viewBox="0 0 111.07 116.56"><defs><style>.b24dab87-82a8-468c-90d6-a476c4ebed15{fill:none;}.b4dcd4f9-c96f-41c0-8df4-3b8e1b06e2a7{isolation:isolate;}.f72b9dd4-e75d-4e9d-91e6-3f91acd42978{clip-path:url(#e089bc44-b94f-4c8c-a0d5-ad4334f80645);}.b568051c-65bb-424a-b75b-db0004e58695,.e2287278-cfd9-490e-b5e4-cfc99733846b{fill:#756420;}.ea16e9ea-f47b-42da-94f6-9d2c19404f77{fill:#fc0;}.bf1e54aa-8031-48c9-a887-9a7534e7e0a3{fill:#a2c5d6;}.b33f57cd-ae20-411d-a8ec-028414b1b2bc{fill:#a4eb5f;}.e31e2354-330f-489f-8023-8ca0ca0dd79c{fill:#72a042;}.fc50b2a5-90bb-4b6a-bc38-26d12e3b94ae{fill:#c4ea9d;}.bf19a5db-82b5-401a-8310-504b2a54a202{fill:url(#b9341e79-ba9e-4ac0-bcc3-a6a64d3f6810);}.b7436d4d-d90a-47f3-9db7-dffe002fd3e0{fill:#0e516d;}.e9c863d2-7318-4fd1-8717-5b8fa9a4e742{fill:#2c8c99;}.ff1ebe74-f1d3-456e-b15d-c1dc241f81a6{fill:#d4aa00;}.beda2e43-43b9-4a36-95b3-1d84fabc6cf8{fill:#edcc40;}.b568051c-65bb-424a-b75b-db0004e58695{opacity:0.6;}.a07890eb-7209-4c7d-a6ec-7577c1760884,.ab9059f7-ffac-45fa-9dd1-32ab41c41fc6{fill:#6800d4;}.ba3dc427-e145-4507-ada4-ef0ba4f20ef0{fill:#0f005f;}.a94febef-209e-4d59-bd61-5a4206f90ab5,.aacf0b9b-0273-4038-aac0-6662715e8807,.ab9059f7-ffac-45fa-9dd1-32ab41c41fc6{mix-blend-mode:screen;}.ab9059f7-ffac-45fa-9dd1-32ab41c41fc6,.bdc4e388-24f2-4ca7-b38d-66974c620eaf{opacity:0.3;}.faf40e1c-7906-43fa-94a1-e5e9ff825f4f{clip-path:url(#fcd0ebd3-e8e8-40c6-a6dd-ae8fb998a508);}.f1f28c96-a473-4704-9936-dfe94cde1182{fill:#9bd1e3;}.bce281d2-8a03-474c-95e3-c3e7c7c0c701{fill:#9fd3e4;}.b0964492-8ae0-46f8-be89-4c501cbe6ed8{fill:#a3d5e5;}.f1b9a12d-d6c0-4c54-9435-36c5b5b560df{fill:#a7d6e6;}.b4cd1a66-03b9-4bb1-aba4-90331ca87f93{fill:#aad8e7;}.e3e4c20c-4bd6-4a78-a4de-a0edceea446f{fill:#aedae8;}.a10662e7-0e71-4121-a809-052bd358fcdd{fill:#b1dbe9;}.f4331750-84af-40ae-b588-f5a1c24b4b0f{fill:#b5ddea;}.b0170cd4-88aa-4f90-9412-59b1fd8492d4{fill:#b8deeb;}.fe6424fd-7b34-4a5f-ad35-5a34b61b5f32{fill:#bbe0ec;}.fd9ba161-44f2-4486-aaf8-a8b3732a32db{fill:#bee1ed;}.b394ff47-eda2-4c47-a722-ed59a3691024{fill:#c1e3ee;}.ad9dad96-c363-4065-b587-ff7429278bce{fill:#c4e4ee;}.a4d51cca-d6b6-414f-ac15-d8cd70909fab{fill:#c7e5ef;}.b5442782-39ca-4d79-8ad3-2e3ea468dec3{fill:#c9e6f0;}.b4298ed4-36ac-4d38-b67a-c7ff87cecb44{fill:#cce7f1;}.b94ddd73-de33-48b2-9c3b-d5a5f9c2f6cd{fill:#cee9f1;}.ab47ca3a-a8a5-43e9-bc9a-23d3623135a4{fill:#d1eaf2;}.f2520271-b557-444d-aed3-193458dd4508{fill:#d3ebf3;}.b19824af-18af-43e4-829d-a0ca06e94402{fill:#d5ecf3;}.bb443920-b344-4eb4-9fca-3099e00a695e{fill:#d7edf4;}.edd17d5c-70b7-46f7-ae57-6717558248df{fill:#d9eef4;}.aaef199b-db3b-4ce5-890e-0e3b72d87e2a{fill:#dbeef5;}.ee253b2f-5713-42b8-b530-98a2134fbfa4{fill:#ddeff5;}.a8ccf77e-6f8c-4f11-bdb1-4fb7093103ed{fill:#dff0f6;}.b69b4bf8-ab03-4b00-a2e5-a60ddc2192fc{fill:#e0f1f6;}.a763c964-0ceb-49f3-ac6f-432843258ea9{fill:#e2f2f7;}.b6dfd89b-ca30-4c23-86b6-e179d14b8c3d{fill:#e4f2f7;}.ab20a75d-be16-4437-a633-25f13ca5e0ec{fill:#e5f3f8;}.a276de4f-3d60-46e9-a3df-a1751e018f71{fill:#e7f4f8;}.b3424743-eb6d-440e-a368-0869cce3f925{fill:#e8f4f9;}.ae207661-ef58-4eb7-8624-2ac553638086{fill:#e9f5f9;}.bc397a4f-9ace-4ea4-bdc7-04ade84b5ac6{fill:#ebf6f9;}.a114852f-118a-4779-88ae-c91fd0ccf66c{fill:#ecf6fa;}.be77d60e-fc32-4eb4-bd5b-e3851b101607{fill:#edf7fa;}.b6538e18-d935-46be-8a06-b9499f819187{fill:#eef7fa;}.bc7d379f-8dfb-4ffe-ad70-4f46daf7490f{fill:#eff8fb;}.a613477b-1e15-45cf-a547-1cea0fdab19b{fill:#f0f8fb;}.f75666c5-03e0-4170-bcc0-9240a90a0216{fill:#f1f9fb;}.a4e4cebe-2c81-4341-a98d-392a3d576933{fill:#f2f9fb;}.a93f3f16-07f9-48ae-bf7a-878e72f2bff1{fill:#f3f9fc;}.e644e85d-755f-48e5-9e69-c69483e5fdff{fill:#f4fafc;}.be9cc99a-099b-43db-b9d0-d11f50be31b4{fill:#f5fafc;}.f0a981f1-b64c-4576-8305-431ca231c0a7{fill:#f6fbfc;}.f08f1860-ee13-4d64-bada-9ca9f3a07fe1{fill:#f7fbfd;}.b76119e1-8d69-4e23-a298-7359358b4763{fill:#f8fcfd;}.e5365634-8ded-4232-b256-99e801e0b149{fill:#f9fcfd;}.f440f392-ff18-4758-9fc6-74156032343c{fill:#fafdfe;}.a1fa9745-e406-4c62-bf49-0d7f284403ea{fill:#fbfdfe;}.be016f3e-4bd3-45f3-a12c-49b9f767079a{fill:#fcfdfe;}.bd848687-fcdf-425f-a351-579542668b20{fill:#fcfefe;}.b9392f54-e4dc-43eb-b9c5-f2c52f93a7ac{fill:#fdfefe;}.b94455f8-3d5c-4b03-a2ee-238a6ff93cd0{fill:#fdfeff;}.ba6bb116-0252-4a90-9b3f-344c0614ed4e{fill:#fefeff;}.b8328d02-2b77-4746-9707-6722245751d2{fill:#feffff;}.fd045430-a9ed-4f84-9db6-53b81c39b3a6{fill:#fff;}.a9cb61f3-db5d-4234-b8ea-75c241a96cf0{fill:#b8ff2d;}.b41b6e11-1384-4268-a46b-5926fbc90476{fill:#2c2c2c;}.aacf0b9b-0273-4038-aac0-6662715e8807{opacity:0.4;fill:url(#b3eb9339-e28d-44b0-8f89-4ff65318e43a);}</style><clipPath id="e089bc44-b94f-4c8c-a0d5-ad4334f80645" transform="translate(0 -10.4)"><polygon class="b24dab87-82a8-468c-90d6-a476c4ebed15" points="109.03 93.21 109.03 31.07 54.71 0 0.39 31.07 0.39 93.21 54.71 119.28 109.03 93.21"/></clipPath><linearGradient id="b9341e79-ba9e-4ac0-bcc3-a6a64d3f6810" x1="73.22" y1="24.21" x2="73.22" y2="39.1" gradientUnits="userSpaceOnUse"><stop offset="0" stop-color="#b4ff81"/><stop offset="0.55" stop-color="#f6fff1"/><stop offset="1" stop-color="#c4ea9d"/></linearGradient><clipPath id="fcd0ebd3-e8e8-40c6-a6dd-ae8fb998a508" transform="translate(0 -10.4)"><path class="b24dab87-82a8-468c-90d6-a476c4ebed15" d="M72.14,96.73a4.81,4.81,0,1,1,8.41-3.2"/></clipPath><radialGradient id="b3eb9339-e28d-44b0-8f89-4ff65318e43a" cx="54.99" cy="80.76" r="77.65" gradientTransform="translate(0 42.34) scale(1 0.48)" gradientUnits="userSpaceOnUse"><stop offset="0" stop-color="#fff"/><stop offset="0.28" stop-color="#fff" stop-opacity="0.99"/><stop offset="0.38" stop-color="#fff" stop-opacity="0.97"/><stop offset="0.45" stop-color="#fff" stop-opacity="0.92"/><stop offset="0.51" stop-color="#fff" stop-opacity="0.85"/><stop offset="0.56" stop-color="#fff" stop-opacity="0.77"/><stop offset="0.6" stop-color="#fff" stop-opacity="0.66"/><stop offset="0.64" stop-color="#fff" stop-opacity="0.53"/><stop offset="0.68" stop-color="#fff" stop-opacity="0.39"/><stop offset="0.71" stop-color="#fff" stop-opacity="0.22"/><stop offset="0.75" stop-color="#fff" stop-opacity="0.04"/><stop offset="0.75" stop-color="#fff" stop-opacity="0"/></radialGradient></defs><title>UI_NAV_Btn-Profile-07b</title><g class="b4dcd4f9-c96f-41c0-8df4-3b8e1b06e2a7"><g id="b8e88be4-8e60-405e-b490-cc08c101f547" data-name="Layer 2"><g id="afd0754e-a139-4c13-a3dd-67d617cefda4" data-name="Layer 1"><g id="a9093f88-c503-449d-b62e-eb34f46ded4d" data-name="Hero Dude"><g class="f72b9dd4-e75d-4e9d-91e6-3f91acd42978"><path class="e2287278-cfd9-490e-b5e4-cfc99733846b" d="M26.94,28.81c6.39-3.49,17,7.58,25.64,7.58,6.93,0,24.16-10.37,29.89-7.58,7.07,3.43,3.19,20.51,6.84,25.15a44.11,44.11,0,0,0,4,3.06s-1.89-.11-1.57.46c1.19,2.1.83,4.05.83,5.67,0,8.61-17.64,15.59-39.38,15.59s-39.38-7-39.38-15.59c0-.87-1,.94-1,.94-.25-2.81,4.78-6.17,5.87-12.69S20.72,32.2,26.94,28.81Z" transform="translate(0 -10.4)"/><path class="ea16e9ea-f47b-42da-94f6-9d2c19404f77" d="M54,10.4,23.06,28.25V64L54,81.8,84.89,64V28.25Z" transform="translate(0 -10.4)"/><path class="bf1e54aa-8031-48c9-a887-9a7534e7e0a3" d="M15.45,73.71S11.91,76,8.39,78.42C11.16,85,12.67,97,14.51,102.51,14.54,102.5,15.45,73.71,15.45,73.71Z" transform="translate(0 -10.4)"/><path class="bf1e54aa-8031-48c9-a887-9a7534e7e0a3" d="M95,73.17l.77,27.26C98.7,95,102.5,88,106.32,83c-1-1-2.23-2-3.73-3.32Z" transform="translate(0 -10.4)"/><path class="b33f57cd-ae20-411d-a8ec-028414b1b2bc" d="M84.94,34.53l.16,9.36-.25.31c-1.14,1.4-5.88,7.12-7.7,8C72,54.75,68.79,53.48,66,51.45c-.29-.21-.57-.43-.85-.65L81.62,36l1.6-1.43Z" transform="translate(0 -10.4)"/><path class="b33f57cd-ae20-411d-a8ec-028414b1b2bc" d="M70.38,34.79l-2,1.43L54.74,46c-7.3,1-10.12,10.23-19.65,7.51-2.75-.78-9.45-7-11.51-9L23,44l0,0v-.71l.08-5.34c10.08,3.82,21.34,4.26,31.49-.4,1.78-.84,3.55-1.7,5.33-2.55Z" transform="translate(0 -10.4)"/><path class="e31e2354-330f-489f-8023-8ca0ca0dd79c" d="M23.05,37.9c10.08,3.82,21.34,4.26,31.49-.4,1.78-.84,3.55-1.7,5.33-2.55l-36.81.59Z" transform="translate(0 -10.4)"/><path class="fc50b2a5-90bb-4b6a-bc38-26d12e3b94ae" d="M83.22,34.59,81.62,36,65.13,50.8c-2.6-2.07-5-4.55-8.36-4.86a3.91,3.91,0,0,0-.49,0,8.59,8.59,0,0,0-1.54.08l13.63-9.77,2-1.43Z" transform="translate(0 -10.4)"/><path class="e31e2354-330f-489f-8023-8ca0ca0dd79c" d="M84.85,44.2a9.49,9.49,0,0,0-.3,1.77c-1.5,1.83-5.71,6.82-7.4,7.65-5.66,2.8-9,1-12-1.41C62.41,50,60,47.42,56.28,47.32a8.59,8.59,0,0,0-1.54.08c-7.3,1-10.12,10.23-19.65,7.51-2.56-.73-8.53-6.16-11-8.49a10.41,10.41,0,0,0-.49-1.88c2.06,2,8.76,8.18,11.51,9C44.62,56.22,47.44,47,54.74,46a8.59,8.59,0,0,1,1.54-.08,3.91,3.91,0,0,1,.49,0c3.4.31,5.76,2.79,8.36,4.86.28.22.56.44.85.65,2.81,2,6,3.3,11.17.76C79,51.32,83.71,45.6,84.85,44.2Z" transform="translate(0 -10.4)"/><polygon class="bf19a5db-82b5-401a-8310-504b2a54a202" points="65.41 39.1 82.44 24.21 79.42 24.35 64 37.55 65.41 39.1"/><path class="b7436d4d-d90a-47f3-9db7-dffe002fd3e0" d="M94.84,73.44c-.24-9.33-9.92-12.34-9.92-12.34V64L53.87,81.69,23.16,64.12l-.06-4.69s-11.47,6.7-8,15.08c5.11,4.6,20.05,12.73,29.81,17.82,1.5-3.8,3.14-7.92,7.2-8.76,5.54-1,8.28,4.29,10.2,9.11C73.63,86.94,92.51,77,94.84,73.44ZM85.43,63.22Z" transform="translate(0 -10.4)"/><path class="e9c863d2-7318-4fd1-8717-5b8fa9a4e742" d="M55.52,81.93a9,9,0,0,1,7,5.56L93.07,71.6c-.31-4.73-4.2-8.28-7.68-9.89l.53,2.61ZM22.36,64.59l.07-4.09c-3.09,2-6.88,6.23-7,10.26L44.89,87.59c1.49-2.83,3.09-5.31,7.34-5.66Zm63.07-1.37Z" transform="translate(0 -10.4)"/><path class="ff1ebe74-f1d3-456e-b15d-c1dc241f81a6" d="M90.83,46.79c-.46,2.84-2.25,5.49-6,5.29q0-.55-.06-1.14c2.79-1.43,4.88-3.9,4.42-7.4a5.87,5.87,0,0,0-2,2.41,17.72,17.72,0,0,1,.4-3.22c-2.41,1.81-1,4.83-2.21,7a2.91,2.91,0,0,1-.62.8,32.15,32.15,0,0,1-.15-4.6,9.49,9.49,0,0,1,.3-1.77c0-.12.07-.24.11-.37s.1-.16.15-.24,0,0,0,0c1.26-1.94,3.61-3.39,4.82-1.42A7.8,7.8,0,0,1,90.83,46.79Z" transform="translate(0 -10.4)"/><path class="beda2e43-43b9-4a36-95b3-1d84fabc6cf8" d="M86,41.88a6.33,6.33,0,0,0-1,2c1.21-2.09,3.72-3.77,5-1.71a7.8,7.8,0,0,1,.88,4.66C91.53,42.5,89.16,37.78,86,41.88Z" transform="translate(0 -10.4)"/><path class="e2287278-cfd9-490e-b5e4-cfc99733846b" d="M89.14,43.54a5.87,5.87,0,0,0-2,2.41,17.72,17.72,0,0,1,.4-3.22c-2.41,1.81-1,4.83-2.21,7a2.91,2.91,0,0,1-.62.8c0,.12,0,.24,0,.37C87.51,49.51,89.6,47,89.14,43.54Z" transform="translate(0 -10.4)"/><path class="e2287278-cfd9-490e-b5e4-cfc99733846b" d="M55.75,57A6.47,6.47,0,0,1,50,55.12a2.45,2.45,0,0,0,.3,1.22c1.19,2,6.65,2.42,8.38,1.14a3.32,3.32,0,0,0,1.2-1.66A26,26,0,0,1,55.75,57Z" transform="translate(0 -10.4)"/><path class="beda2e43-43b9-4a36-95b3-1d84fabc6cf8" d="M54.34,55c.4,1,2.42.2,2.62-.6.6-1.41-1.81-3-.81-4.23,1.24-1.51.51-2.64-.15-3.85a1.33,1.33,0,0,0-.45-.17.9.9,0,0,0-.39,0C54.89,49.19,52.75,52.17,54.34,55Z" transform="translate(0 -10.4)"/><path class="ff1ebe74-f1d3-456e-b15d-c1dc241f81a6" d="M56,46.32c.66,1.21,1.39,2.34.15,3.85-1,1.21,1.41,2.82.81,4.23-.2.8-2.22,1.61-2.62.6-1.59-2.83.55-5.81.82-8.81-1.88.54-5.21,5.89-5.14,8.93A6.47,6.47,0,0,0,55.75,57a26,26,0,0,0,4.15-1.19C61,52.57,57.83,47.32,56,46.32Z" transform="translate(0 -10.4)"/><path class="b568051c-65bb-424a-b75b-db0004e58695" d="M58,48.33a7.83,7.83,0,0,0-1.23-.47q-.59-.18-1.17-.3a4.36,4.36,0,0,0-.62,0,5.05,5.05,0,0,0-1.82.37,5,5,0,0,1,2-1.71.9.9,0,0,1,.39,0,1.33,1.33,0,0,1,.45.17A6.56,6.56,0,0,1,58,48.33Z" transform="translate(0 -10.4)"/><path class="e2287278-cfd9-490e-b5e4-cfc99733846b" d="M44.6,65.41s0,0,0,0c.67,1.88,7.44,3.62,10.46,3.62,2.66,0,7.16-.43,8.82-3.24A30.29,30.29,0,0,1,44.6,65.41Z" transform="translate(0 -10.4)"/><path class="beda2e43-43b9-4a36-95b3-1d84fabc6cf8" d="M63.89,65a26.77,26.77,0,0,1-14.38-.38,10.31,10.31,0,0,0-4.9-.21,1.5,1.5,0,0,0,0,1c2.38,2.14,15.5,3.42,19.33.45A5.64,5.64,0,0,0,63.89,65Z" transform="translate(0 -10.4)"/><path class="ff1ebe74-f1d3-456e-b15d-c1dc241f81a6" d="M49.51,64.66A26.77,26.77,0,0,0,63.89,65c-.46-2.3-3.72-2.76-5.59-2.46a22.08,22.08,0,0,1-7.51,0c-3.1-.52-5.69.47-6.18,1.87A10.31,10.31,0,0,1,49.51,64.66Z" transform="translate(0 -10.4)"/><path class="e2287278-cfd9-490e-b5e4-cfc99733846b" d="M21,42.33c-.2,2,.6,3.82,1,5.63-.81-1.81-1.81-3.62-1.81-5.63a5.09,5.09,0,0,0,1.2,7,6,6,0,0,0,3,1.35c0-.84,0-1.64-.06-2.41C23.31,46.21,22.5,44.05,21,42.33Z" transform="translate(0 -10.4)"/><path class="ff1ebe74-f1d3-456e-b15d-c1dc241f81a6" d="M24.37,52.67c-2.31.47-4.51-1.3-5.75-3.27-.86-3-1-6.41,1.32-7.88a1.63,1.63,0,0,1,2,.18l.06.06a11.23,11.23,0,0,1,1,1.48s0,0,0,0a9,9,0,0,1,.59,1.27,10.41,10.41,0,0,1,.49,1.88,14.39,14.39,0,0,1,.2,1.89c-1-2.1-1.77-4.26-3.32-6-.2,2,.6,3.82,1,5.63-.81-1.81-1.81-3.62-1.81-5.63a5.09,5.09,0,0,0,1.2,7,6,6,0,0,0,3,1.35C24.34,51.34,24.35,52,24.37,52.67Z" transform="translate(0 -10.4)"/><path class="beda2e43-43b9-4a36-95b3-1d84fabc6cf8" d="M19.94,41.52a1.63,1.63,0,0,1,2,.18C18,36.86,17.1,46.12,18,48.28a8.28,8.28,0,0,0,.6,1.13C17.76,46.44,17.66,43,19.94,41.52Z" transform="translate(0 -10.4)"/><path class="ff1ebe74-f1d3-456e-b15d-c1dc241f81a6" d="M59.57,19l.15-.18C59.63,18.84,59.57,18.88,59.57,19Z" transform="translate(0 -10.4)"/><path class="ff1ebe74-f1d3-456e-b15d-c1dc241f81a6" d="M84.92,29.94c0-1-.07-1.69-.07-1.69L81,26c.25.48.5.95.72,1.44-1.61-.2-2.41-1.81-3.62-2.41-.2.4.6.8.2,1.41a14.12,14.12,0,0,1-3.22-3.62,6.24,6.24,0,0,0,.61,1.81,15.79,15.79,0,0,1-4.08-4.07L68,18.48a19.07,19.07,0,0,1,.23,2.12,9.36,9.36,0,0,1-1.69-3L65,16.73c1.22,3.17,2.92,6.16,5.87,7.9,0-1.41-1-2.62-1.41-4,3.82,3,6.64,7.24,11.06,9.26-.2-.81-.6-1.61-.8-2.42C81.42,28.36,83.16,29.18,84.92,29.94Z" transform="translate(0 -10.4)"/><path class="beda2e43-43b9-4a36-95b3-1d84fabc6cf8" d="M68,18.48l-1.46-.85a9.36,9.36,0,0,0,1.69,3A19.07,19.07,0,0,0,68,18.48Z" transform="translate(0 -10.4)"/><path class="beda2e43-43b9-4a36-95b3-1d84fabc6cf8" d="M75.67,24.63a6.24,6.24,0,0,1-.61-1.81,14.12,14.12,0,0,0,3.22,3.62c.4-.61-.4-1-.2-1.41,1.21.6,2,2.21,3.62,2.41-.22-.49-.47-1-.72-1.44l-9.39-5.44A15.79,15.79,0,0,0,75.67,24.63Z" transform="translate(0 -10.4)"/><path class="e2287278-cfd9-490e-b5e4-cfc99733846b" d="M79.69,27.44c.2.81.6,1.61.8,2.42-4.42-2-7.24-6.24-11.06-9.26.4,1.41,1.41,2.62,1.41,4-3-1.74-4.65-4.73-5.87-7.9l-1.11-.65a3.52,3.52,0,0,1-.67.9c-.57.77-2.43.63-3.47,1.83a1,1,0,0,1,.25,0C53.54,26.44,43.88,29.66,35,33.07,42.27,28.45,49.11,23.22,56,18c-9.86,4.62-20.11,8.25-30.17,12.67A186.13,186.13,0,0,0,49.22,13.2l-26.16,15,0,7.39s14.32,4.55,23.74.7c7.33-3,11.5-8.87,16.25-15.72,0,4.06,3.46,9.69,9.89,7.5,2.76,7.35,7.34,8.16,12,6.68.07-1.69,0-3.52,0-4.81C83.16,29.18,81.42,28.36,79.69,27.44Z" transform="translate(0 -10.4)"/><path class="ff1ebe74-f1d3-456e-b15d-c1dc241f81a6" d="M60.58,15c-3.22.6-5.84,2.41-8.45,4,1.41-1.4,3-2.61,4.63-4-4.23,1-7.25,4-10.87,5.83,2.82-3.22,5.29-6.71,7.81-10.17L49.22,13.2A186.13,186.13,0,0,1,25.78,30.66C35.84,26.24,46.09,22.61,56,18,49.11,23.22,42.27,28.45,35,33.07c7.51-1.27,12.74-2.27,26.82-14.48a12.94,12.94,0,0,0,2-2.51l-1-.59a44.07,44.07,0,0,1-6.29,4.71C58,18.39,59.37,16.78,60.58,15Z" transform="translate(0 -10.4)"/><path class="beda2e43-43b9-4a36-95b3-1d84fabc6cf8" d="M53.7,10.63c-2.52,3.46-5,6.95-7.81,10.17C49.51,19,52.53,16,56.76,15c-1.61,1.41-3.22,2.62-4.63,4,2.61-1.61,5.23-3.42,8.45-4-1.21,1.81-2.62,3.42-4,5.23a44.07,44.07,0,0,0,6.29-4.71l-8.78-5.08Z" transform="translate(0 -10.4)"/><path class="a07890eb-7209-4c7d-a6ec-7577c1760884" d="M94.16,126.1c.37-2.37,1.06-24.83,2-27.25L94.91,73.31,61.18,90c-1.87-3.89-4.53-7.27-9-6.44-3.2.66-4.9,3.36-6.21,6.34L15,73.31l-.73,26.43c.34,2.16.59,24.3.72,26.36Zm.57-52.52c-.25-.18,0,0,0,0Z" transform="translate(0 -10.4)"/><path class="e9c863d2-7318-4fd1-8717-5b8fa9a4e742" d="M86,95.38a9.39,9.39,0,1,1-.42-2.79l-.23,0-.12,0h-.54a8.82,8.82,0,0,0-8-5.61h0a8.66,8.66,0,0,0-8.53,8.53,8.3,8.3,0,0,0,.69,3.3h0l0,.05a.14.14,0,0,0,0,.06,8.38,8.38,0,0,0,1.33,2.08l0,.06,0,.05A8.56,8.56,0,0,0,76.68,104h0a8.91,8.91,0,0,0,8.44-7.33,7.15,7.15,0,0,0,.07-2c.21-.19.39-.36.54-.52l.1-.12,0-.06A10,10,0,0,1,86,95.38Z" transform="translate(0 -10.4)"/><path class="e9c863d2-7318-4fd1-8717-5b8fa9a4e742" d="M85.6,92.66a3.25,3.25,0,0,0-.89-.08.25.25,0,0,0,0-.07h.4a2.31,2.31,0,0,1,.49.07A.25.25,0,0,0,85.6,92.66Z" transform="translate(0 -10.4)"/><path class="e9c863d2-7318-4fd1-8717-5b8fa9a4e742" d="M85.89,93.92l-.15.18c-.15.16-.33.33-.54.52v-.08a4.83,4.83,0,0,0,.68-.7S85.88,93.89,85.89,93.92Z" transform="translate(0 -10.4)"/><path class="e9c863d2-7318-4fd1-8717-5b8fa9a4e742" d="M85.19,94.54v0a7.43,7.43,0,0,1-.07,2.06A8.91,8.91,0,0,1,76.69,104h0a8.56,8.56,0,0,1-6.41-3,8.47,8.47,0,0,1-1.4-2.2,8.23,8.23,0,0,1-.72-3.36,8.66,8.66,0,0,1,8.53-8.53h0a8.81,8.81,0,0,1,8,5.68,3.25,3.25,0,0,1,.89.08,8.82,8.82,0,0,1,.27,1.18A4.83,4.83,0,0,1,85.19,94.54Z" transform="translate(0 -10.4)"/><path class="ba3dc427-e145-4507-ada4-ef0ba4f20ef0" d="M85.13,96.64A8.91,8.91,0,0,1,76.69,104h0a8.56,8.56,0,0,1-6.41-3,8.47,8.47,0,0,1-1.4-2.2,8.23,8.23,0,0,1-.72-3.36,8.66,8.66,0,0,1,8.53-8.53h0a8.81,8.81,0,0,1,8,5.68,3.58,3.58,0,0,1,.19.55l.29,1.41v0A7.43,7.43,0,0,1,85.13,96.64Z" transform="translate(0 -10.4)"/><path class="e9c863d2-7318-4fd1-8717-5b8fa9a4e742" d="M72.16,96.73a4.81,4.81,0,1,1,8.41-3.2" transform="translate(0 -10.4)"/><g class="a94febef-209e-4d59-bd61-5a4206f90ab5"><g class="bdc4e388-24f2-4ca7-b38d-66974c620eaf"><g class="faf40e1c-7906-43fa-94a1-e5e9ff825f4f"><rect class="f1f28c96-a473-4704-9936-dfe94cde1182" x="70.93" y="78.31" width="9.62" height="8.01"/><path class="f1f28c96-a473-4704-9936-dfe94cde1182" d="M80.17,92.72a4.42,4.42,0,0,1-1.3,3.13,4.32,4.32,0,0,1-.66.54,2.67,2.67,0,0,1-.36.22l-.19.1-.1.05v0H73.92v0l-.1-.05-.19-.1a2.77,2.77,0,0,1-.37-.22,4.78,4.78,0,0,1-.65-.54,4.42,4.42,0,0,1,0-6.26,4.78,4.78,0,0,1,.65-.54l.37-.22.19-.1.1,0v0h3.64v0l.1,0,.19.1c.12.07.25.14.36.22a4.32,4.32,0,0,1,.66.54A4.42,4.42,0,0,1,80.17,92.72Z" transform="translate(0 -10.4)"/><path class="bce281d2-8a03-474c-95e3-c3e7c7c0c701" d="M80.12,92.72a4.38,4.38,0,0,1-1.28,3.1,4.31,4.31,0,0,1-1.4.94v0H74v0a4.39,4.39,0,0,1-1.39-7.14A4.55,4.55,0,0,1,74,88.68v0h3.41v0a4.48,4.48,0,0,1,1.4.94A4.39,4.39,0,0,1,80.12,92.72Z" transform="translate(0 -10.4)"/><path class="b0964492-8ae0-46f8-be89-4c501cbe6ed8" d="M80.08,92.72a4.36,4.36,0,0,1-1.27,3.07,4.48,4.48,0,0,1-1.38.93l-.1,0v0H74.15v0l-.1,0a4.34,4.34,0,0,1,0-8l.1,0v0h3.18v0l.1,0a4.48,4.48,0,0,1,1.38.93A4.36,4.36,0,0,1,80.08,92.72Z" transform="translate(0 -10.4)"/><path class="f1b9a12d-d6c0-4c54-9435-36c5b5b560df" d="M80,92.72a4.31,4.31,0,0,1-2.62,4l-.2.08v0H74.26v0l-.19-.08a4.3,4.3,0,0,1,0-7.92l.19-.07v0h2.95v0l.2.07a4.35,4.35,0,0,1,2.62,4Z" transform="translate(0 -10.4)"/><path class="b4cd1a66-03b9-4bb1-aba4-90331ca87f93" d="M80,92.72a4.24,4.24,0,0,1-1.25,3,4.34,4.34,0,0,1-1.35.91l-.19.07-.1,0v0H74.38v0l-.1,0-.2-.07a4.59,4.59,0,0,1-1.35-.91,4.25,4.25,0,0,1,1.35-6.92l.2-.08.1,0v0H77.1v0l.1,0,.19.08a4,4,0,0,1,1.35.91A4.23,4.23,0,0,1,80,92.72Z" transform="translate(0 -10.4)"/><path class="e3e4c20c-4bd6-4a78-a4de-a0edceea446f" d="M79.94,92.72a4.23,4.23,0,0,1-1.23,3,4.34,4.34,0,0,1-1.33.9l-.39.14h-2.5l-.39-.14a4.51,4.51,0,0,1-1.34-.9,4.21,4.21,0,0,1,0-6,4.33,4.33,0,0,1,1.34-.9l.39-.15H77l.39.15a4.21,4.21,0,0,1,2.56,3.87Z" transform="translate(0 -10.4)"/><path class="a10662e7-0e71-4121-a809-052bd358fcdd" d="M79.9,92.72a4.21,4.21,0,0,1-2.54,3.84L77,96.7l-.2,0v0H74.7v0l-.2,0-.38-.14a4,4,0,0,1-1.32-.9,4.15,4.15,0,0,1,0-5.88,4,4,0,0,1,1.32-.89,2.46,2.46,0,0,1,.38-.14l.2-.06v0h2.08v0l.2.06a2.92,2.92,0,0,1,.38.14,4.1,4.1,0,0,1,1.32.89A4.15,4.15,0,0,1,79.9,92.72Z" transform="translate(0 -10.4)"/><path class="f4331750-84af-40ae-b588-f5a1c24b4b0f" d="M79.86,92.72a4.11,4.11,0,0,1-1.21,2.91,4.06,4.06,0,0,1-1.31.89,4.92,4.92,0,0,1-.77.24v0H74.91v0a4.61,4.61,0,0,1-.77-.24,4,4,0,0,1-1.31-.89,4.11,4.11,0,0,1,1.31-6.7,3.29,3.29,0,0,1,.77-.24v0h1.66v0a3.44,3.44,0,0,1,.77.24,4.19,4.19,0,0,1,1.31.88A4.13,4.13,0,0,1,79.86,92.72Z" transform="translate(0 -10.4)"/><path class="b0170cd4-88aa-4f90-9412-59b1fd8492d4" d="M79.81,92.72a4,4,0,0,1-1.19,2.88,4,4,0,0,1-1.3.87,3.36,3.36,0,0,1-.76.24,2.7,2.7,0,0,1-.41.06v0h-.83v0a2.76,2.76,0,0,1-.4-.06,3.44,3.44,0,0,1-.77-.24,4.07,4.07,0,0,1,0-7.5,4.92,4.92,0,0,1,.77-.24,2.76,2.76,0,0,1,.4-.06v0h.83v0a2.7,2.7,0,0,1,.41.06,4.8,4.8,0,0,1,.76.24,4,4,0,0,1,1.3.87A4.06,4.06,0,0,1,79.81,92.72Z" transform="translate(0 -10.4)"/><circle class="fe6424fd-7b34-4a5f-ad35-5a34b61b5f32" cx="75.74" cy="82.32" r="4.03"/><circle class="fd9ba161-44f2-4486-aaf8-a8b3732a32db" cx="75.74" cy="82.32" r="3.98"/><circle class="b394ff47-eda2-4c47-a722-ed59a3691024" cx="75.74" cy="82.32" r="3.94"/><circle class="ad9dad96-c363-4065-b587-ff7429278bce" cx="75.74" cy="82.32" r="3.9"/><circle class="a4d51cca-d6b6-414f-ac15-d8cd70909fab" cx="75.74" cy="82.32" r="3.85"/><circle class="b5442782-39ca-4d79-8ad3-2e3ea468dec3" cx="75.74" cy="82.32" r="3.81"/><circle class="b4298ed4-36ac-4d38-b67a-c7ff87cecb44" cx="75.74" cy="82.32" r="3.76"/><circle class="b94ddd73-de33-48b2-9c3b-d5a5f9c2f6cd" cx="75.74" cy="82.32" r="3.72"/><circle class="ab47ca3a-a8a5-43e9-bc9a-23d3623135a4" cx="75.74" cy="82.32" r="3.67"/><circle class="f2520271-b557-444d-aed3-193458dd4508" cx="75.74" cy="82.32" r="3.63"/><circle class="b19824af-18af-43e4-829d-a0ca06e94402" cx="75.74" cy="82.32" r="3.59"/><circle class="bb443920-b344-4eb4-9fca-3099e00a695e" cx="75.74" cy="82.32" r="3.54"/><circle class="edd17d5c-70b7-46f7-ae57-6717558248df" cx="75.74" cy="82.32" r="3.5"/><circle class="aaef199b-db3b-4ce5-890e-0e3b72d87e2a" cx="75.74" cy="82.32" r="3.45"/><circle class="ee253b2f-5713-42b8-b530-98a2134fbfa4" cx="75.74" cy="82.32" r="3.41"/><circle class="a8ccf77e-6f8c-4f11-bdb1-4fb7093103ed" cx="75.74" cy="82.32" r="3.36"/><circle class="b69b4bf8-ab03-4b00-a2e5-a60ddc2192fc" cx="75.74" cy="82.32" r="3.32"/><circle class="a763c964-0ceb-49f3-ac6f-432843258ea9" cx="75.74" cy="82.32" r="3.28"/><circle class="b6dfd89b-ca30-4c23-86b6-e179d14b8c3d" cx="75.74" cy="82.32" r="3.23"/><circle class="ab20a75d-be16-4437-a633-25f13ca5e0ec" cx="75.74" cy="82.32" r="3.19"/><circle class="a276de4f-3d60-46e9-a3df-a1751e018f71" cx="75.74" cy="82.32" r="3.14"/><circle class="b3424743-eb6d-440e-a368-0869cce3f925" cx="75.74" cy="82.32" r="3.1"/><circle class="ae207661-ef58-4eb7-8624-2ac553638086" cx="75.74" cy="82.32" r="3.05"/><circle class="bc397a4f-9ace-4ea4-bdc7-04ade84b5ac6" cx="75.74" cy="82.32" r="3.01"/><circle class="a114852f-118a-4779-88ae-c91fd0ccf66c" cx="75.74" cy="82.32" r="2.97"/><circle class="be77d60e-fc32-4eb4-bd5b-e3851b101607" cx="75.74" cy="82.32" r="2.92"/><circle class="b6538e18-d935-46be-8a06-b9499f819187" cx="75.74" cy="82.32" r="2.88"/><circle class="bc7d379f-8dfb-4ffe-ad70-4f46daf7490f" cx="75.74" cy="82.32" r="2.83"/><circle class="a613477b-1e15-45cf-a547-1cea0fdab19b" cx="75.74" cy="82.32" r="2.79"/><circle class="f75666c5-03e0-4170-bcc0-9240a90a0216" cx="75.74" cy="82.32" r="2.74"/><circle class="a4e4cebe-2c81-4341-a98d-392a3d576933" cx="75.74" cy="82.32" r="2.7"/><circle class="a93f3f16-07f9-48ae-bf7a-878e72f2bff1" cx="75.74" cy="82.32" r="2.66"/><circle class="e644e85d-755f-48e5-9e69-c69483e5fdff" cx="75.74" cy="82.32" r="2.61"/><circle class="e644e85d-755f-48e5-9e69-c69483e5fdff" cx="75.74" cy="82.32" r="2.57"/><circle class="be9cc99a-099b-43db-b9d0-d11f50be31b4" cx="75.74" cy="82.32" r="2.52"/><circle class="f0a981f1-b64c-4576-8305-431ca231c0a7" cx="75.74" cy="82.32" r="2.48"/><circle class="f08f1860-ee13-4d64-bada-9ca9f3a07fe1" cx="75.74" cy="82.32" r="2.43"/><circle class="f08f1860-ee13-4d64-bada-9ca9f3a07fe1" cx="75.74" cy="82.32" r="2.39"/><circle class="b76119e1-8d69-4e23-a298-7359358b4763" cx="75.74" cy="82.32" r="2.35"/><circle class="b76119e1-8d69-4e23-a298-7359358b4763" cx="75.74" cy="82.32" r="2.3"/><circle class="e5365634-8ded-4232-b256-99e801e0b149" cx="75.74" cy="82.32" r="2.26"/><circle class="e5365634-8ded-4232-b256-99e801e0b149" cx="75.74" cy="82.32" r="2.21"/><circle class="f440f392-ff18-4758-9fc6-74156032343c" cx="75.74" cy="82.32" r="2.17"/><circle class="f440f392-ff18-4758-9fc6-74156032343c" cx="75.74" cy="82.32" r="2.13"/><circle class="a1fa9745-e406-4c62-bf49-0d7f284403ea" cx="75.74" cy="82.32" r="2.08"/><circle class="a1fa9745-e406-4c62-bf49-0d7f284403ea" cx="75.74" cy="82.32" r="2.04"/><circle class="a1fa9745-e406-4c62-bf49-0d7f284403ea" cx="75.74" cy="82.32" r="1.99"/><circle class="be016f3e-4bd3-45f3-a12c-49b9f767079a" cx="75.74" cy="82.32" r="1.95"/><circle class="bd848687-fcdf-425f-a351-579542668b20" cx="75.74" cy="82.32" r="1.9"/><circle class="bd848687-fcdf-425f-a351-579542668b20" cx="75.74" cy="82.32" r="1.86"/><circle class="bd848687-fcdf-425f-a351-579542668b20" cx="75.74" cy="82.32" r="1.82"/><circle class="b9392f54-e4dc-43eb-b9c5-f2c52f93a7ac" cx="75.74" cy="82.32" r="1.77"/><circle class="b9392f54-e4dc-43eb-b9c5-f2c52f93a7ac" cx="75.74" cy="82.32" r="1.73"/><circle class="b9392f54-e4dc-43eb-b9c5-f2c52f93a7ac" cx="75.74" cy="82.32" r="1.68"/><circle class="b94455f8-3d5c-4b03-a2ee-238a6ff93cd0" cx="75.74" cy="82.32" r="1.64"/><circle class="ba6bb116-0252-4a90-9b3f-344c0614ed4e" cx="75.74" cy="82.32" r="1.59"/><circle class="ba6bb116-0252-4a90-9b3f-344c0614ed4e" cx="75.74" cy="82.32" r="1.55"/><circle class="ba6bb116-0252-4a90-9b3f-344c0614ed4e" cx="75.74" cy="82.32" r="1.51"/><circle class="b8328d02-2b77-4746-9707-6722245751d2" cx="75.74" cy="82.32" r="1.46"/><circle class="b8328d02-2b77-4746-9707-6722245751d2" cx="75.74" cy="82.32" r="1.42"/><circle class="b8328d02-2b77-4746-9707-6722245751d2" cx="75.74" cy="82.32" r="1.37"/><circle class="b8328d02-2b77-4746-9707-6722245751d2" cx="75.74" cy="82.32" r="1.33"/><circle class="b8328d02-2b77-4746-9707-6722245751d2" cx="75.74" cy="82.32" r="1.28"/><circle class="b8328d02-2b77-4746-9707-6722245751d2" cx="75.74" cy="82.32" r="1.24"/><circle class="fd045430-a9ed-4f84-9db6-53b81c39b3a6" cx="75.74" cy="82.32" r="1.2"/><circle class="fd045430-a9ed-4f84-9db6-53b81c39b3a6" cx="75.74" cy="82.32" r="1.15"/><circle class="fd045430-a9ed-4f84-9db6-53b81c39b3a6" cx="75.74" cy="82.32" r="1.11"/><circle class="fd045430-a9ed-4f84-9db6-53b81c39b3a6" cx="75.74" cy="82.32" r="1.06"/><circle class="fd045430-a9ed-4f84-9db6-53b81c39b3a6" cx="75.74" cy="82.32" r="1.02"/><circle class="fd045430-a9ed-4f84-9db6-53b81c39b3a6" cx="75.74" cy="82.32" r="0.97"/><circle class="fd045430-a9ed-4f84-9db6-53b81c39b3a6" cx="75.74" cy="82.32" r="0.93"/><circle class="fd045430-a9ed-4f84-9db6-53b81c39b3a6" cx="75.74" cy="82.32" r="0.89"/><circle class="fd045430-a9ed-4f84-9db6-53b81c39b3a6" cx="75.74" cy="82.32" r="0.84"/><circle class="fd045430-a9ed-4f84-9db6-53b81c39b3a6" cx="75.74" cy="82.32" r="0.8"/><circle class="fd045430-a9ed-4f84-9db6-53b81c39b3a6" cx="75.74" cy="82.32" r="0.75"/><circle class="fd045430-a9ed-4f84-9db6-53b81c39b3a6" cx="75.74" cy="82.32" r="0.71"/><circle class="fd045430-a9ed-4f84-9db6-53b81c39b3a6" cx="75.74" cy="82.32" r="0.66"/><circle class="fd045430-a9ed-4f84-9db6-53b81c39b3a6" cx="75.74" cy="82.32" r="0.62"/><circle class="fd045430-a9ed-4f84-9db6-53b81c39b3a6" cx="75.74" cy="82.32" r="0.58"/><circle class="fd045430-a9ed-4f84-9db6-53b81c39b3a6" cx="75.74" cy="82.32" r="0.53"/><circle class="fd045430-a9ed-4f84-9db6-53b81c39b3a6" cx="75.74" cy="82.32" r="0.49"/><circle class="fd045430-a9ed-4f84-9db6-53b81c39b3a6" cx="75.74" cy="82.32" r="0.44"/><circle class="fd045430-a9ed-4f84-9db6-53b81c39b3a6" cx="75.74" cy="82.32" r="0.4"/><circle class="fd045430-a9ed-4f84-9db6-53b81c39b3a6" cx="75.74" cy="82.32" r="0.35"/><circle class="fd045430-a9ed-4f84-9db6-53b81c39b3a6" cx="75.74" cy="82.32" r="0.31"/><circle class="fd045430-a9ed-4f84-9db6-53b81c39b3a6" cx="75.74" cy="82.32" r="0.27"/><circle class="fd045430-a9ed-4f84-9db6-53b81c39b3a6" cx="75.74" cy="82.32" r="0.22"/><circle class="fd045430-a9ed-4f84-9db6-53b81c39b3a6" cx="75.74" cy="82.32" r="0.18"/><circle class="fd045430-a9ed-4f84-9db6-53b81c39b3a6" cx="75.74" cy="82.32" r="0.13"/><circle class="fd045430-a9ed-4f84-9db6-53b81c39b3a6" cx="75.74" cy="82.32" r="0.09"/><circle class="fd045430-a9ed-4f84-9db6-53b81c39b3a6" cx="75.74" cy="82.32" r="0.04"/></g></g></g><path class="fd045430-a9ed-4f84-9db6-53b81c39b3a6" d="M80.57,93.36a5.21,5.21,0,0,0-1.32-3,4.69,4.69,0,0,0-2-1.34c-.91-.29-1.81-.18-1.83,0s1.33.17,2.24,1.19a2.88,2.88,0,0,1,.73,1.75,3.25,3.25,0,0,1-1.93,2.87Z" transform="translate(0 -10.4)"/><path class="a07890eb-7209-4c7d-a6ec-7577c1760884" d="M85.87,93.84a4.83,4.83,0,0,1-.68.7,30.57,30.57,0,0,1-7.61,4.2A36,36,0,0,1,70.27,101a8.47,8.47,0,0,1-1.4-2.2A33.48,33.48,0,0,1,76,95a28.47,28.47,0,0,1,8.68-2.38,3.25,3.25,0,0,1,.89.08.71.71,0,0,1,.52.36C86.21,93.23,86.12,93.51,85.87,93.84Z" transform="translate(0 -10.4)"/><path class="a9cb61f3-db5d-4234-b8ea-75c241a96cf0" d="M75.24,102.09l-.51,0a9.45,9.45,0,0,1-1.38-.32c-.19,0-.36-.1-.48-.12a6.54,6.54,0,0,1-1-.6,1.27,1.27,0,0,1-.31-.3,3.24,3.24,0,0,1-.29-2.28,3.64,3.64,0,0,1,.46-1.14,3.86,3.86,0,0,1,.87-1h0a1.15,1.15,0,0,1,.93-.3c.46.1.66.68.86,1.24s.36,1.06.76,1.12a.88.88,0,0,0,.67-.21c.08-.07.32-.32.48-.46l.41-.4a8.73,8.73,0,0,1,1.19-1l0,0a8.36,8.36,0,0,1,1.65-.78,2.38,2.38,0,0,1,2.2.13,1.73,1.73,0,0,1,.56.66,2.7,2.7,0,0,1,.28.9,3,3,0,0,1-.34,1.91,3.21,3.21,0,0,1-.85.92,3,3,0,0,1-1,.49,1.06,1.06,0,0,1-.83-.09.9.9,0,0,1-.34-.56,1.84,1.84,0,0,1,0-.66c0-.22.09-.36.18-.39s.21.1.33.25.36.45.6.42a.67.67,0,0,0,.48-.35.64.64,0,0,0,.09-.56.7.7,0,0,0-.54-.4,4.46,4.46,0,0,0-1.73.19,2.64,2.64,0,0,0-1.27,1.86,5.2,5.2,0,0,1-.39,1,1.57,1.57,0,0,1-.73.71A2.15,2.15,0,0,1,75.24,102.09Z" transform="translate(0 -10.4)"/><path class="b41b6e11-1384-4268-a46b-5926fbc90476" d="M72.71,94.52A1.28,1.28,0,1,1,74,93.24,1.28,1.28,0,0,1,72.71,94.52Z" transform="translate(0 -10.4)"/><path class="b41b6e11-1384-4268-a46b-5926fbc90476" d="M73.93,93.24A1.22,1.22,0,1,1,72.71,92,1.21,1.21,0,0,1,73.93,93.24Z" transform="translate(0 -10.4)"/><path class="ab9059f7-ffac-45fa-9dd1-32ab41c41fc6" d="M15.65,126.56,92.7,127,92.5,78.4,58.11,95.73,57,126.47l-1.91.08V98.18L52.36,95.7l2.71-2.34V90.14l-2.81-2.92,2.81-1.51v-2a4.4,4.4,0,0,0-3.49.06v42.38l-2.95.27L47.43,95.2,16.06,78.7Z" transform="translate(0 -10.4)"/><path class="b7436d4d-d90a-47f3-9db7-dffe002fd3e0" d="M14.25,99.74A100.91,100.91,0,0,0,8.39,78.42c-2.08,1.41-4.16,2.83-5.49,3.8C.76,83.76.14,102.48.05,106.1l14,20Z" transform="translate(0 -10.4)"/><path class="b7436d4d-d90a-47f3-9db7-dffe002fd3e0" d="M15,126.1c-.13-2.06-.38-24.2-.72-26.36l-.18,26.36Z" transform="translate(0 -10.4)"/><path class="b7436d4d-d90a-47f3-9db7-dffe002fd3e0" d="M96.14,98.85l.34,27.25,14.59-20c0-9.48-.24-18.79-4.75-23.06C102.36,86.68,98.49,92.65,96.14,98.85Z" transform="translate(0 -10.4)"/><path class="b7436d4d-d90a-47f3-9db7-dffe002fd3e0" d="M96.48,126.1l-.34-27.25c-.92,2.42-1.61,24.88-2,27.25Z" transform="translate(0 -10.4)"/><path class="aacf0b9b-0273-4038-aac0-6662715e8807" d="M15,74.11,17.33,126,0,106.36,1.36,83.88A66.34,66.34,0,0,1,15,74.11Zm79.27-1.54L92.06,120.8,110,100.36l-1-13.27C106.39,82.57,100.79,77.63,94.29,72.57Z" transform="translate(0 -10.4)"/></g></g></g></g></g></svg>